# xmcd CD database file
#
# Track frame offsets:
#	150
#	18758
#	37121
#
# Disc length: 723 seconds
#
# Revision: 3
# Processed by: cddbd v1.4PL0 Copyright (c) Steve Scherf et al.
# Submitted via: CDex 1.50Beta7
#
DISCID=1a02d103
DTITLE=Ja Rule - The Reign
DYEAR=2003
DGENRE=Rap
TTITLE0=The Reign (Radio Edit)
TTITLE1=The Reign (Album Version)
TTITLE2=The Reign (Instrumental)
EXTD=YEAR: 2003
EXTT0=
EXTT1=
EXTT2=
PLAYORDER=
